<?xml version="1.0" encoding="UTF-8"?>
<svg width="147px" height="46px" viewBox="0 0 147 46" version="1.1" xmlns="http://www.w3.org/2000/svg" xmlns:xlink="http://www.w3.org/1999/xlink">
    <!-- Generator: Sketch 60 (88103) - https://sketch.com -->
    <title>biaoqian</title>
    <desc>Created with Sketch.</desc>
    <g id="livestart" stroke="none" stroke-width="1" fill="none" fill-rule="evenodd">
        <g id="演出首页" transform="translate(-30.000000, -796.000000)" fill="#FCCA16" fill-rule="nonzero">
            <g id="biaoqian" transform="translate(30.000000, 796.000000)">
                <path d="M17.8794422,7.33631381 L6.27792746,0.56052902 C4.98363327,-0.1886652 3.39297453,-0.186717526 2.10048057,0.565644072 C0.807986623,1.31800567 0.00820004536,2.70753783 0,4.21488486 L0,17.7664544 C-0.00737602634,19.2804647 0.789710219,20.6820576 2.08791418,21.437743 C3.38611814,22.1934284 4.98574532,22.186964 6.27792746,21.4208103 L17.8794422,14.6450255 C19.1888734,13.9047648 20,12.5069508 20,10.9906697 C20,9.47438851 19.1888734,8.07657448 17.8794422,7.33631381 L17.8794422,7.33631381 Z" id="路径"></path>
                <path d="M138.029888,15.1650209 C136.941278,15.1650209 135.897255,14.727723 135.127492,13.9493277 C134.357729,13.1709323 133.92528,12.1152017 133.92528,11.0143844 C133.925014,9.90179176 133.033007,9 131.932752,9 C130.832498,9 129.94049,9.90179176 129.940224,11.0143844 L129.940224,28.8661512 C128.221246,27.5476652 126.120142,26.8394433 123.96264,26.8512791 C118.460426,26.8512791 114,31.3617239 114,36.9256396 C114,42.4895552 118.460426,47 123.96264,47 C129.464854,47 133.92528,42.4895552 133.92528,36.9256396 L133.92528,18.0664367 C135.163124,18.8257327 136.582116,19.2297351 138.029888,19.2350626 C140.208647,19.2881745 141.962421,21.0616151 142.014944,23.2648067 C142.01521,24.3773994 142.907217,25.2791911 144.007472,25.2791911 C145.107727,25.2791911 146,24.3773994 146,23.2648067 C145.957219,18.8251109 142.420082,15.2304246 138.029888,15.1650209 L138.029888,15.1650209 Z" id="路径" transform="translate(130.000000, 28.000000) rotate(10.000000) translate(-130.000000, -28.000000) "></path>
            </g>
        </g>
    </g>
</svg>