<?xml version="1.0" encoding="UTF-8"?>
<svg width="30px" height="36px" viewBox="0 0 30 36" version="1.1" xmlns="http://www.w3.org/2000/svg" xmlns:xlink="http://www.w3.org/1999/xlink">
    <!-- Generator: Sketch 60 (88103) - https://sketch.com -->
    <title>dizhi</title>
    <desc>Created with Sketch.</desc>
    <g id="livestart" stroke="none" stroke-width="1" fill="none" fill-rule="evenodd">
        <g id="演出首页" transform="translate(-596.000000, -195.000000)">
            <g id="dizhi" transform="translate(596.000000, 195.000000)">
                <circle id="椭圆形" fill="#BEFDE1" cx="15" cy="16" r="5"></circle>
                <path d="M14.9904913,10 C16.5879556,10 18.1093502,10.6275753 19.2313788,11.7496038 C20.3724247,12.8716323 21,14.3930269 21,15.9904913 C21,19.2995246 18.318542,22 15.0095087,22 C11.7004754,22 9,19.318542 9,16.0095087 C9,12.7004754 11.681458,10 14.9904913,10 Z M14.9904913,13 C13.3448709,13 12,14.3507694 12,16.0095087 C12,17.6551291 13.3507694,19 15.0095087,19 C16.6551291,19 18,17.6492306 18,15.9904913 C18,15.1882834 17.6889739,14.4403395 17.1100584,13.8709241 C16.5517861,13.3126518 15.7939181,13 14.9904913,13 Z" id="路径" fill="#62B28F" fill-rule="nonzero"></path>
                <path d="M4.74187957,4.02090225 C10.593143,-1.47103582 19.9394563,-1.31848199 25.6140037,4.36414838 C31.3792192,10.1510987 31.4640017,19.3073228 25.84957,25.1933693 L25.5943686,25.4547161 L14.9914081,36 L4.38844756,25.4547161 C-1.37676786,19.6489771 -1.46155044,10.5109891 4.13409982,4.62548298 L4.38844756,4.36414838 L4.74187957,4.02090225 Z M23.4911742,6.48395843 C19.0401093,2.02655336 11.7223658,1.83089699 7.07411161,5.95211512 L6.83196145,6.17300767 L6.496,6.498 L6.28338098,6.71888647 C1.90496552,11.3518858 1.90481057,18.4517931 6.2740813,23.0899351 L6.50397465,23.3276183 L14.991,31.768 L23.4726105,23.3338337 C28.0924066,18.71213 28.1740494,11.4334583 23.7214835,6.72132129 L23.4911742,6.48395843 Z" id="路径" fill="#62B28F" fill-rule="nonzero"></path>
            </g>
        </g>
    </g>
</svg>