<?xml version="1.0" encoding="UTF-8"?>
<svg width="34px" height="38px" viewBox="0 0 34 38" version="1.1" xmlns="http://www.w3.org/2000/svg" xmlns:xlink="http://www.w3.org/1999/xlink">
    <!-- Generator: Sketch 60 (88103) - https://sketch.com -->
    <title>xieyi</title>
    <desc>Created with Sketch.</desc>
    <g id="livestart" stroke="none" stroke-width="1" fill="none" fill-rule="evenodd">
        <g id="我的(未登陆)" transform="translate(-33.000000, -736.000000)" fill="#333333" fill-rule="nonzero">
            <path d="M67,769 C67,771.761424 64.7614237,774 62,774 L38,774 C35.2385763,774 33,771.761424 33,769 L33,741 C33,738.238576 35.2385763,736 38,736 L62,736 C64.7614237,736 67,738.238576 67,741 L67,769 Z M64,766 L36,766 L36,767.833333 C36,769.582235 37.417765,771 39.1666667,771 L60.8333333,771 C62.582235,771 64,769.582235 64,767.833333 L64,766 Z M50,739 L39.1666667,739 C37.417765,739 36,740.417765 36,742.166667 L36,763 L64,763 L64,742.166667 C64,740.473716 62.6714992,739.091054 61.0001353,739.004318 L61,750.042961 C61,750.595246 60.5522847,751.043034 60,751.043034 C59.7896072,751.043034 59.5845741,750.976602 59.4140785,750.853329 L55.5,748.023326 L51.5859215,750.853329 C51.1383677,751.176924 50.5132277,751.076436 50.1896322,750.628882 C50.0663585,750.458387 50,750.253354 50,750.042961 L50,739 Z M58,739 L53,739 L53,746.128 L55.5,744.321304 L58,746.129 L58,739 Z" id="xieyi"></path>
        </g>
    </g>
</svg>