<?xml version="1.0" encoding="UTF-8"?>
<svg width="30px" height="30px" viewBox="0 0 30 30" version="1.1" xmlns="http://www.w3.org/2000/svg" xmlns:xlink="http://www.w3.org/1999/xlink">
    <!-- Generator: Sketch 60 (88103) - https://sketch.com -->
    <title>xuanze1</title>
    <desc>Created with Sketch.</desc>
    <g id="livestart1.5" stroke="none" stroke-width="1" fill="none" fill-rule="evenodd">
        <g id="我要出票-弹窗1" transform="translate(-559.000000, -594.000000)" fill="#CCCCCC" fill-rule="nonzero">
            <path d="M574,594 C582.284271,594 589,600.715729 589,609 C589,617.284271 582.284271,624 574,624 C565.715729,624 559,617.284271 559,609 C559,600.715729 565.715729,594 574,594 Z M574,596 C566.820298,596 561,601.820298 561,609 C561,616.179702 566.820298,622 574,622 C581.179702,622 587,616.179702 587,609 C587,601.820298 581.179702,596 574,596 Z" id="xuanze1" transform="translate(574.000000, 609.000000) scale(-1, 1) translate(-574.000000, -609.000000) "></path>
        </g>
    </g>
</svg>