<?xml version="1.0" encoding="UTF-8"?>
<svg width="30px" height="36px" viewBox="0 0 30 36" version="1.1" xmlns="http://www.w3.org/2000/svg" xmlns:xlink="http://www.w3.org/1999/xlink">
    <!-- Generator: Sketch 60 (88103) - https://sketch.com -->
    <title>address_white</title>
    <desc>Created with Sketch.</desc>
    <g id="livestart1.5" stroke="none" stroke-width="1" fill="none" fill-rule="evenodd">
        <g id="演出群" transform="translate(-596.000000, -195.000000)" fill="#FFFFFF" fill-rule="nonzero">
            <path d="M621.614004,199.364148 C627.379219,205.151099 627.464002,214.307323 621.84957,220.193369 L621.594369,220.454716 L610.991408,231 L600.388448,220.454716 C594.623232,214.648977 594.53845,205.510989 600.1341,199.625483 L600.388448,199.364148 L600.74188,199.020902 C606.593143,193.528964 615.939456,193.681518 621.614004,199.364148 Z M603.074112,200.952115 L602.831961,201.173008 L602.496,201.498 L602.283381,201.718886 C597.904966,206.351886 597.904811,213.451793 602.274081,218.089935 L602.503975,218.327618 L610.991,226.768 L619.47261,218.333834 C624.092407,213.71213 624.174049,206.433458 619.721484,201.721321 L619.491174,201.483958 C615.040109,197.026553 607.722366,196.830897 603.074112,200.952115 Z M610.990491,205 C612.587956,205 614.10935,205.627575 615.231379,206.749604 C616.372425,207.871632 617,209.393027 617,210.990491 C617,214.299525 614.318542,217 611.009509,217 C607.700475,217 605,214.318542 605,211.009509 C605,207.700475 607.681458,205 610.990491,205 Z M610.990491,208 C609.344871,208 608,209.350769 608,211.009509 C608,212.655129 609.350769,214 611.009509,214 C612.655129,214 614,212.649231 614,210.990491 C614,210.188283 613.688974,209.44034 613.110058,208.870924 C612.551786,208.312652 611.793918,208 610.990491,208 Z" id="address_white"></path>
        </g>
    </g>
</svg>