<?xml version="1.0" encoding="UTF-8"?>
<svg width="200px" height="134px" viewBox="0 0 200 134" version="1.1" xmlns="http://www.w3.org/2000/svg" xmlns:xlink="http://www.w3.org/1999/xlink">
    <!-- Generator: Sketch 60 (88103) - https://sketch.com -->
    <title>chupiao</title>
    <desc>Created with Sketch.</desc>
    <defs>
        <path d="M121.75,-2.73558953e-13 C126.30625,-2.73558953e-13 130,3.65861226 130,8.17151977 L130,18.5716358 C130,19.8025871 128.992773,20.8002321 127.75,20.8002321 C124.850781,20.8002321 122.5,23.1280706 122.5,26.0002902 C122.5,28.8719294 124.850781,31.1997679 127.75,31.1997679 C128.992773,31.1997679 130,32.1979933 130,33.4283642 L130,43.8284802 C130,48.3413877 126.30625,52 121.75,52 L78.25,52 C73.69375,52 70,48.3413877 70,43.8284802 L70,33.4283642 C70,32.1974129 71.0072266,31.1997679 72.25,31.1997679 C75.1492188,31.1997679 77.4994141,28.8719294 77.4994141,26.0002902 C77.5,23.128651 75.1492188,20.8002321 72.25,20.8002321 C71.0072266,20.8002321 70,19.8025871 70,18.5716358 L70,8.17151977 C70,3.65861226 73.69375,-2.73558953e-13 78.25,-2.73558953e-13 L121.75,-2.73558953e-13 Z M109,29.7146174 L91,29.7146174 C89.7572266,29.7146174 88.75,30.7122624 88.75,31.9432137 C88.75,33.1735845 89.7572266,34.17181 91,34.17181 L91,34.17181 L109,34.17181 C110.242773,34.17181 111.25,33.1741649 111.25,31.9432137 C111.25,30.7122624 110.242773,29.7146174 109,29.7146174 L109,29.7146174 Z M109,17.8287704 L91,17.8287704 C89.7572266,17.8287704 88.75,18.8264155 88.75,20.0573667 C88.75,21.2883179 89.7572266,22.285963 91,22.285963 L91,22.285963 L109,22.285963 C110.242773,22.285963 111.25,21.2883179 111.25,20.0573667 C111.25,18.8264155 110.242773,17.8287704 109,17.8287704 L109,17.8287704 Z" id="path-1"></path>
        <filter x="-25.0%" y="-17.3%" width="150.0%" height="157.7%" filterUnits="objectBoundingBox" id="filter-2">
            <feOffset dx="0" dy="6" in="SourceAlpha" result="shadowOffsetOuter1"></feOffset>
            <feGaussianBlur stdDeviation="4" in="shadowOffsetOuter1" result="shadowBlurOuter1"></feGaussianBlur>
            <feColorMatrix values="0 0 0 0 0.938094429   0 0 0 0 0.383150708   0 0 0 0 0.128523227  0 0 0 0.4 0" type="matrix" in="shadowBlurOuter1"></feColorMatrix>
        </filter>
    </defs>
    <g id="livestart" stroke="none" stroke-width="1" fill="none" fill-rule="evenodd">
        <g id="我的" transform="translate(-275.000000, -377.000000)">
            <g id="chupiao" transform="translate(275.000000, 379.000000)">
                <rect id="矩形" fill="#FEECE3" x="0" y="26" width="200" height="106" rx="8"></rect>
                <g id="piaoquan" fill-rule="nonzero">
                    <use fill="black" fill-opacity="1" filter="url(#filter-2)" xlink:href="#path-1"></use>
                    <use fill="#EF6221" xlink:href="#path-1"></use>
                </g>
            </g>
        </g>
    </g>
</svg>