<?xml version="1.0" encoding="UTF-8"?>
<svg width="28px" height="28px" viewBox="0 0 28 28" version="1.1" xmlns="http://www.w3.org/2000/svg" xmlns:xlink="http://www.w3.org/1999/xlink">
    <!-- Generator: Sketch 60 (88103) - https://sketch.com -->
    <title>copy</title>
    <desc>Created with Sketch.</desc>
    <g id="livestart1.5" stroke="none" stroke-width="1" fill="none" fill-rule="evenodd">
        <g id="演出详情" transform="translate(-684.000000, -691.000000)" fill="#62B28F" fill-rule="nonzero">
            <g id="copy" transform="translate(698.000000, 705.000000) scale(-1, 1) translate(-698.000000, -705.000000) translate(684.000000, 691.000000)">
                <path d="M9.92859016,0.0229297809 L25.3373952,0.0229297809 C26.7557365,0.0229297809 27.9055293,1.17272261 27.9055293,2.59106393 L27.9055293,17.999869 C27.9055293,19.4182103 26.7557365,20.5680031 25.3373952,20.5680031 L9.92859016,20.5680031 C8.51024881,20.5680031 7.36045597,19.4182103 7.36045597,17.999869 L7.36045597,2.59106393 C7.36045597,1.1727226 8.51024883,0.0229297809 9.92859016,0.0229297809 Z M9.92859016,2.22418764 C9.72596997,2.22418764 9.56171384,2.38844375 9.56171384,2.59106393 L9.56171384,17.999869 C9.56171384,18.2024892 9.72596996,18.3667453 9.92859016,18.3667453 L25.3373952,18.3667453 C25.5400154,18.3667453 25.7042715,18.2024891 25.7042715,17.999869 L25.7042715,2.59106393 C25.7042715,2.38844376 25.5400154,2.22418764 25.3373952,2.22418764 L9.92859016,2.22418764 Z M18.3667453,22.769261 C18.3667453,22.1614004 18.8595136,21.6686321 19.4673742,21.6686321 C20.0752348,21.6686321 20.5680031,22.1614004 20.5680031,22.769261 L20.5680031,25.3373952 C20.5680031,26.7557365 19.4182103,27.9055293 17.999869,27.9055293 L2.59106393,27.9055293 C1.17272261,27.9055293 0.0229297809,26.7557365 0.0229297809,25.3373952 L0.0229297809,9.92859016 C0.0229297809,8.51024883 1.1727226,7.36045597 2.59106393,7.36045597 L5.15919811,7.36045597 C5.76705869,7.36045597 6.25982704,7.85322433 6.25982704,8.46108491 C6.25982704,9.06894548 5.76705869,9.56171384 5.15919811,9.56171384 L2.59106393,9.56171384 C2.38844375,9.56171386 2.22418764,9.72596997 2.22418764,9.92859016 L2.22418764,25.3373952 C2.22418766,25.5400154 2.38844376,25.7042715 2.59106393,25.7042715 L17.999869,25.7042715 C18.2024891,25.7042715 18.3667453,25.5400154 18.3667453,25.3373952 L18.3667453,22.769261 Z" id="形状"></path>
            </g>
        </g>
    </g>
</svg>