<?xml version="1.0" encoding="UTF-8"?>
<svg width="28px" height="34px" viewBox="0 0 28 34" version="1.1" xmlns="http://www.w3.org/2000/svg" xmlns:xlink="http://www.w3.org/1999/xlink">
    <!-- Generator: Sketch 60 (88103) - https://sketch.com -->
    <title>dizhi</title>
    <desc>Created with Sketch.</desc>
    <g id="livestart1.5" stroke="none" stroke-width="1" fill="none" fill-rule="evenodd">
        <g id="演出详情" transform="translate(-328.000000, -486.000000)" fill="#666666" fill-rule="nonzero">
            <g id="dizhi" transform="translate(328.000000, 486.000000)">
                <path d="M23.9064035,4.12169569 C29.2872712,9.58714873 29.3664016,18.2346937 24.1262653,23.7937377 L23.8880774,24.0405652 L15.4106985,32.5722021 C14.6321454,33.3557382 13.3658219,33.3597777 12.5822858,32.5812246 L12.5732633,32.5722021 L12.5732633,32.5722021 L4.09588439,24.0405652 C-1.28498334,18.5573672 -1.36411374,9.92704528 3.85849316,4.3685117 L4.09588439,4.12169569 L4.42575427,3.79751879 C9.88693345,-1.38931161 18.6101593,-1.24523299 23.9064035,4.12169569 Z M13.9920761,9 C11.2345483,9 9,11.2503962 9,14.0079239 C9,16.7654517 11.2503962,19 14.0079239,19 C16.7654517,19 19,16.7496038 19,13.9920761 C19,12.6608558 18.4770206,11.3930269 17.526149,10.4580032 C16.5911252,9.5229794 15.3232964,9 13.9920761,9 Z" id="形状结合"></path>
            </g>
        </g>
    </g>
</svg>