<?xml version="1.0" encoding="UTF-8"?>
<svg width="40px" height="40px" viewBox="0 0 40 40" version="1.1" xmlns="http://www.w3.org/2000/svg" xmlns:xlink="http://www.w3.org/1999/xlink">
    <!-- Generator: Sketch 60 (88103) - https://sketch.com -->
    <title>gengduo</title>
    <desc>Created with Sketch.</desc>
    <g id="livestart" stroke="none" stroke-width="1" fill="none" fill-rule="evenodd">
        <g id="出票详情" transform="translate(-680.000000, -200.000000)" fill="#333333" fill-rule="nonzero">
            <path d="M700.000489,200 C711.04599,200 720,208.953923 720,220.000089 C720,231.046613 711.04599,240 700.000489,240 C688.953966,240 680,231.046613 680,220.000089 C680,209.068633 688.767918,200.18676 699.656002,200.002907 L700.000489,200 Z M700.000533,203 C690.610422,203 683,210.610329 683,220.000089 C683,229.389622 690.610682,237 700.000489,237 C709.389418,237 717,229.389477 717,220.000089 C717,210.718807 709.563198,203.175198 700.323525,203.003008 L700.000533,203 Z M700,218 C701.104542,218 702,218.895423 702,220 C702,221.104542 701.104542,222 700,222 C698.895458,222 698,221.104577 698,220 C698,218.895458 698.895423,218 700,218 Z M709,218 C710.104542,218 711,218.895423 711,220 C711,221.104542 710.104542,222 709,222 C707.895458,222 707,221.104577 707,220 C707,218.895458 707.895423,218 709,218 Z M691,218 C692.104542,218 693,218.895423 693,220 C693,221.104542 692.104542,222 691,222 C689.895458,222 689,221.104577 689,220 C689,218.895458 689.895423,218 691,218 Z" id="gengduo"></path>
        </g>
    </g>
</svg>