<?xml version="1.0" encoding="UTF-8"?>
<svg width="116px" height="116px" viewBox="0 0 116 116" version="1.1" xmlns="http://www.w3.org/2000/svg" xmlns:xlink="http://www.w3.org/1999/xlink">
    <!-- Generator: Sketch 60 (88103) - https://sketch.com -->
    <title>jiaqun</title>
    <desc>Created with Sketch.</desc>
    <defs>
        <circle id="path-1" cx="44" cy="44" r="44"></circle>
        <filter x="-29.5%" y="-18.2%" width="159.1%" height="159.1%" filterUnits="objectBoundingBox" id="filter-2">
            <feOffset dx="0" dy="10" in="SourceAlpha" result="shadowOffsetOuter1"></feOffset>
            <feGaussianBlur stdDeviation="7" in="shadowOffsetOuter1" result="shadowBlurOuter1"></feGaussianBlur>
            <feColorMatrix values="0 0 0 0 0.384313725   0 0 0 0 0.698039216   0 0 0 0 0.560784314  0 0 0 0.4 0" type="matrix" in="shadowBlurOuter1"></feColorMatrix>
        </filter>
    </defs>
    <g id="livestart" stroke="none" stroke-width="1" fill="none" fill-rule="evenodd">
        <g id="演出首页" transform="translate(-618.000000, -1754.000000)">
            <g id="jiaqun" transform="translate(632.000000, 1758.000000)">
                <g id="椭圆形">
                    <use fill="black" fill-opacity="1" filter="url(#filter-2)" xlink:href="#path-1"></use>
                    <use fill="#62B28F" fill-rule="evenodd" xlink:href="#path-1"></use>
                </g>
                <path d="M61.1940461,35.0821765 C61.2258728,28.9148922 56.922992,23.5727084 50.8904639,22.2901228 C44.8579359,21.0075372 38.753867,24.1370825 36.2740486,29.783933 C33.7942301,35.4307835 35.6202673,42.0428406 40.6465612,45.6167446 C33.2539435,48.6411329 28.4167449,55.8272751 28.3970634,63.8145985 C28.3970634,64.8970322 29.2745493,65.7745181 30.3569831,65.7745181 C31.4394168,65.7745181 32.3169027,64.8970322 32.3169027,63.8145985 C32.3169027,55.1052056 39.4436605,48.020096 48.2020515,48.020096 C55.357904,48.0241925 61.1682169,42.2379842 61.1940461,35.0821765 L61.1940461,35.0821765 Z M48.1849021,44.1296678 C43.1949131,44.1012799 39.1700455,40.0381068 39.1888696,35.0480728 C39.2078261,30.0580389 43.263341,26.025455 48.2534019,26.0348434 C53.2434628,26.0442646 57.2838291,30.0921068 57.2838291,35.0821765 C57.2635748,40.090641 53.193401,44.1378009 48.1849021,44.1296678 L48.1849021,44.1296678 Z" id="形状" fill="#FFFFFF" fill-rule="nonzero"></path>
                <path d="M34.0832803,47.4713186 C35.0512807,47.4004335 35.8184513,46.6260107 35.8802258,45.6573862 C35.9420003,44.6887618 35.2794234,43.8231561 34.3282703,43.6298761 C30.500708,42.8551582 27.6801001,39.5920471 27.4674065,35.6926649 C27.2547129,31.7932826 29.7036671,28.2427408 33.4242573,27.0563056 C34.0950379,26.8483654 34.6016578,26.2950124 34.7497578,25.6085344 C34.8978577,24.9220563 34.664441,24.2090487 34.1390555,23.743049 C33.6136699,23.2770494 32.8778965,23.1304175 32.2140069,23.3594072 C27.8188659,24.7592891 24.5593505,28.4765211 23.7456912,33.0168837 C22.9320319,37.5572463 24.6978609,42.1750491 28.3333661,45.0140693 C22.2582743,47.8050759 18.56961,54.089793 19.0947948,60.7546739 C19.1839375,61.7696256 20.0358631,62.5470078 21.0547145,62.5431153 L21.2164079,62.5431153 C22.2863511,62.4532999 23.0848635,61.5193353 23.0072844,60.4484365 C22.4874375,53.8080196 27.4436492,48.0011067 34.0832803,47.4713186 L34.0832803,47.4713186 Z M66.0838683,55.5241384 L61.6740491,55.5241384 L61.6740491,51.1314685 C61.6740491,50.0490348 60.7965632,49.1715489 59.7141294,49.1715489 C58.6316957,49.1715489 57.7542098,50.0490348 57.7542098,51.1314685 L57.7542098,55.5241384 L53.3443906,55.5241384 C52.6494303,55.5241383 52.0072605,55.8948952 51.6597804,56.4967485 C51.3123002,57.0986017 51.3123002,57.8401155 51.6597804,58.4419688 C52.0072605,59.0438221 52.6494303,59.4145789 53.3443906,59.4145789 L57.7542098,59.4145789 L57.7542098,63.8096987 C57.7542098,64.8921324 58.6316957,65.7696183 59.7141294,65.7696183 C60.7965632,65.7696183 61.6740491,64.8921324 61.6740491,63.8096987 L61.6740491,59.4170288 L66.0838683,59.4170288 C67.1581838,59.4170288 68.0290886,58.546124 68.0290886,57.4718085 C68.0290886,56.3974931 67.1581838,55.5265883 66.0838683,55.5265883 L66.0838683,55.5241384 Z" id="形状" fill="#FFFFFF" fill-rule="nonzero"></path>
            </g>
        </g>
    </g>
</svg>