<?xml version="1.0" encoding="UTF-8"?>
<svg width="40px" height="40px" viewBox="0 0 40 40" version="1.1" xmlns="http://www.w3.org/2000/svg" xmlns:xlink="http://www.w3.org/1999/xlink">
    <!-- Generator: Sketch 60 (88103) - https://sketch.com -->
    <title>lianxi</title>
    <desc>Created with Sketch.</desc>
    <g id="livestart" stroke="none" stroke-width="1" fill="none" fill-rule="evenodd">
        <g id="我的(未登陆)" transform="translate(-30.000000, -612.000000)" fill="#333333" fill-rule="nonzero">
            <path d="M50,612 C61.045695,612 70,620.954305 70,632 C70,643.045695 61.045695,652 50,652 C38.954305,652 30,643.045695 30,632 C30,620.954305 38.954305,612 50,612 Z M50,615 C40.6111593,615 33,622.611159 33,632 C33,641.388841 40.6111593,649 50,649 C59.3888407,649 67,641.388841 67,632 C67,622.611159 59.3888407,615 50,615 Z M50,621 C53.8659932,621 57,624.134007 57,628 C57,629.992027 56.167914,631.78971 54.8323507,633.06444 C58.2523945,634.648506 60.7843029,637.870017 61.3717427,641.778078 C61.4948842,642.597302 60.9305981,643.36124 60.1113742,643.484381 C59.2921504,643.607523 58.5282124,643.043237 58.4050708,642.224013 C57.7844282,638.095063 54.2197058,635 50,635 C45.7791402,635 42.2137657,638.096723 41.5944648,642.227106 C41.4716253,643.046375 40.7078953,643.610943 39.8886262,643.488104 C39.069357,643.365264 38.5047892,642.601534 38.6276287,641.782265 C39.2137984,637.872848 41.7457562,634.649831 45.1670615,633.063311 C43.8316681,631.788807 43,629.991527 43,628 C43,624.134007 46.1340068,621 50,621 Z M50,624 C47.790861,624 46,625.790861 46,628 C46,630.209139 47.790861,632 50,632 C52.209139,632 54,630.209139 54,628 C54,625.790861 52.209139,624 50,624 Z" id="lianxi"></path>
        </g>
    </g>
</svg>