<?xml version="1.0" encoding="UTF-8"?>
<svg width="26px" height="30px" viewBox="0 0 26 30" version="1.1" xmlns="http://www.w3.org/2000/svg" xmlns:xlink="http://www.w3.org/1999/xlink">
    <!-- Generator: Sketch 60 (88103) - https://sketch.com -->
    <title>didian</title>
    <desc>Created with Sketch.</desc>
    <g id="livestart" stroke="none" stroke-width="1" fill="none" fill-rule="evenodd">
        <g id="演出首页" transform="translate(-167.000000, -1667.000000)" fill="#666666" fill-rule="nonzero">
            <path d="M189.189629,1670.67866 C194.275563,1675.64195 194.27031,1683.55693 189.170616,1688.51701 L184.732173,1692.80868 C184.33514,1693.19259 183.702064,1693.18195 183.318159,1692.78491 C182.934254,1692.38788 182.944897,1691.7548 183.341931,1691.3709 L187.778269,1687.08126 C192.069291,1682.90771 192.073684,1676.2877 187.793615,1672.11084 C183.709282,1668.1343 177.007083,1667.95628 172.71592,1671.64553 L172.480034,1671.85447 L172.209184,1672.11002 C168.005151,1676.21268 167.931396,1682.66187 171.984785,1686.85668 L172.205879,1687.07922 L180.688248,1695.28111 C181.085281,1695.66501 181.095924,1696.29809 180.712019,1696.69512 C180.357645,1697.06161 179.79096,1697.09887 179.393597,1696.80049 L179.298005,1696.71889 L170.811174,1688.51266 C165.810078,1683.61631 165.730696,1675.88901 170.585468,1670.90618 L170.824227,1670.66724 L171.119446,1670.38869 C176.191738,1665.76013 184.270128,1665.88899 189.189629,1670.67866 Z M180,1674 C183.313708,1674 186,1676.68629 186,1680 C186,1683.31371 183.313708,1686 180,1686 C176.686292,1686 174,1683.31371 174,1680 C174,1679.39849 174.088841,1678.80776 174.261769,1678.24255 C174.42335,1677.71443 174.982463,1677.4173 175.510582,1677.57888 C176.038701,1677.74046 176.335839,1678.29957 176.174257,1678.82769 C176.059187,1679.20379 176,1679.59735 176,1680 C176,1682.20914 177.790861,1684 180,1684 C182.209139,1684 184,1682.20914 184,1680 C184,1677.79086 182.209139,1676 180,1676 C179.678207,1676 179.362162,1676.0378 179.055993,1676.1118 C178.519167,1676.24156 177.978795,1675.91157 177.849038,1675.37474 C177.71928,1674.83791 178.049274,1674.29754 178.586099,1674.16779 C179.045842,1674.05666 179.519612,1674 180,1674 Z" id="didian"></path>
        </g>
    </g>
</svg>