<?xml version="1.0" encoding="UTF-8"?>
<svg width="28px" height="28px" viewBox="0 0 28 28" version="1.1" xmlns="http://www.w3.org/2000/svg" xmlns:xlink="http://www.w3.org/1999/xlink">
    <!-- Generator: Sketch 60 (88103) - https://sketch.com -->
    <title>shijian</title>
    <desc>Created with Sketch.</desc>
    <g id="livestart" stroke="none" stroke-width="1" fill="none" fill-rule="evenodd">
        <g id="演出首页" transform="translate(-166.000000, -1623.000000)" fill="#666666" fill-rule="nonzero">
            <path d="M180,1623 C187.731986,1623 194,1629.26801 194,1637 C194,1644.73199 187.731986,1651 180,1651 C172.268014,1651 166,1644.73199 166,1637 C166,1632.93737 167.741442,1629.15379 170.724427,1626.51344 C171.137979,1626.14739 171.769972,1626.1859 172.136022,1626.59945 C172.502073,1627.013 172.463565,1627.645 172.050012,1628.01105 C169.491494,1630.27568 168,1633.51621 168,1637 C168,1643.62742 173.372583,1649 180,1649 C186.627417,1649 192,1643.62742 192,1637 C192,1630.78042 187.268312,1625.66599 181.208307,1625.06008 L181,1625.041 L181,1629 C181,1629.51284 180.61396,1629.93551 180.116621,1629.99327 L180,1630 C179.487164,1630 179.064493,1629.61396 179.006728,1629.11662 L179,1629 L179,1624 C179,1623.44772 179.447715,1623 180,1623 Z M176.585786,1633.17157 L180.828427,1637.41421 C181.218951,1637.80474 181.218951,1638.4379 180.828427,1638.82843 C180.437903,1639.21895 179.804738,1639.21895 179.414214,1638.82843 L175.171573,1634.58579 C174.781049,1634.19526 174.781049,1633.5621 175.171573,1633.17157 C175.562097,1632.78105 176.195262,1632.78105 176.585786,1633.17157 Z" id="shijian"></path>
        </g>
    </g>
</svg>