<?xml version="1.0" encoding="UTF-8"?>
<svg width="31px" height="31px" viewBox="0 0 31 31" version="1.1" xmlns="http://www.w3.org/2000/svg" xmlns:xlink="http://www.w3.org/1999/xlink">
    <!-- Generator: Sketch 60 (88103) - https://sketch.com -->
    <title>time</title>
    <desc>Created with Sketch.</desc>
    <g id="livestart1.5" stroke="none" stroke-width="1" fill="none" fill-rule="evenodd">
        <g id="演出详情" transform="translate(-327.000000, -428.000000)" fill="#666666" fill-rule="nonzero">
            <path d="M342.026163,428.02794 C350.297937,428.02794 357.02741,434.757413 357.02741,443.02794 C357.02741,451.299714 350.299185,458.02794 342.026163,458.02794 C333.754388,458.02794 327.026163,451.299714 327.026163,443.02794 C327.026163,434.757413 333.755636,428.02794 342.026163,428.02794 Z M341.5,434 C340.671573,434 340,434.671573 340,435.5 L340,435.5 L340,443.5 C340,443.562555 340.003829,443.624216 340.011266,443.684761 C339.903554,444.238075 340.115191,444.829279 340.601715,445.18276 L340.601715,445.18276 L347.073851,449.885042 C347.744063,450.371979 348.682118,450.223406 349.169055,449.553194 C349.655992,448.882983 349.507419,447.944928 348.837207,447.457991 L348.837207,447.457991 L342.999163,443.21594 L343,435.5 C343,434.720304 342.405112,434.079551 341.64446,434.006867 Z" id="time"></path>
        </g>
    </g>
</svg>