<?xml version="1.0" encoding="UTF-8"?>
<svg width="33px" height="38px" viewBox="0 0 33 38" version="1.1" xmlns="http://www.w3.org/2000/svg" xmlns:xlink="http://www.w3.org/1999/xlink">
    <!-- Generator: Sketch 60 (88103) - https://sketch.com -->
    <title>tuichu</title>
    <desc>Created with Sketch.</desc>
    <g id="livestart" stroke="none" stroke-width="1" fill="none" fill-rule="evenodd">
        <g id="我的(未登陆)" transform="translate(-34.000000, -860.000000)" fill="#333333" fill-rule="nonzero">
            <path d="M53.3532535,860 C54.1754464,860 54.8419654,860.671573 54.8419654,861.5 C54.8419654,862.279696 54.2515541,862.920449 53.4966264,862.993133 L53.3532535,863 L43.4285081,863 C39.9431255,863 37.1033185,865.784996 36.9814957,869.266866 L36.9774236,869.5 L36.9774236,888.5 C36.9774236,892.011811 39.7414615,894.873151 43.1971284,894.995897 L43.4285081,895 L53.3532535,895 C54.1754464,895 54.8419654,895.671573 54.8419654,896.5 C54.8419654,897.279696 54.2515541,897.920449 53.4966264,897.993133 L53.3532535,898 L43.4285081,898 C38.3110666,898 34.1458547,893.892106 34.0037479,888.770479 L34,888.5 L34,869.5 C34,864.343755 38.0769801,860.146961 43.1600649,860.003776 L43.4285081,860 L53.3532535,860 Z M57.3223511,867.980064 L57.4285865,868.076589 L64.4464412,875.094444 C66.5261679,877.17417 66.5644209,880.527029 64.5705263,882.683869 L64.4171741,882.843351 L57.3461063,889.914419 C56.7603198,890.500205 55.814146,890.503779 55.2327679,889.922401 C54.6855885,889.375222 54.656567,888.504901 55.14342,887.91603 L55.2407498,887.809063 L62.3118176,880.737995 C62.3873829,880.662429 62.4571352,880.583266 62.5210724,880.501065 L45.9209827,880.5 C45.0925556,880.5 44.4209827,879.828427 44.4209827,879 C44.4209827,878.171573 45.0925556,877.5 45.9209827,877.5 L62.5698272,877.500443 C62.5281799,877.443811 62.4838101,877.388564 62.4367172,877.334881 L62.3251209,877.215764 L55.3072661,870.197909 C54.725888,869.616531 54.7294616,868.670357 55.3152481,868.084571 C55.8665765,867.533242 56.7371408,867.497646 57.3223511,867.980064 Z" id="tuichu"></path>
        </g>
    </g>
</svg>