<?xml version="1.0" encoding="UTF-8"?>
<svg width="28px" height="28px" viewBox="0 0 28 28" version="1.1" xmlns="http://www.w3.org/2000/svg" xmlns:xlink="http://www.w3.org/1999/xlink">
    <!-- Generator: Sketch 60 (88103) - https://sketch.com -->
    <title>lianjie</title>
    <desc>Created with Sketch.</desc>
    <g id="livestart" stroke="none" stroke-width="1" fill="none" fill-rule="evenodd">
        <g id="演出首页" transform="translate(-166.000000, -1713.000000)" fill="#666666" fill-rule="nonzero">
            <path d="M186,1717 C190.881803,1717 194.855791,1720.88681 194.996163,1725.73464 L195,1726 L195,1728 C195,1732.8818 191.113186,1736.85579 186.265362,1736.99616 L186,1737 L184,1737 C183.447715,1737 183,1736.55228 183,1736 C183,1735.48716 183.38604,1735.06449 183.883379,1735.00673 L184,1735 L186,1735 C189.785452,1735 192.869099,1731.99522 192.995941,1728.24065 L193,1728 L193,1726 C193,1722.21455 189.995217,1719.1309 186.24065,1719.00406 L186,1719 L184,1719 C183.447715,1719 183,1718.55228 183,1718 C183,1717.48716 183.38604,1717.06449 183.883379,1717.00673 L184,1717 L186,1717 Z M176,1717 C176.552285,1717 177,1717.44772 177,1718 C177,1718.51284 176.61396,1718.93551 176.116621,1718.99327 L176,1719 L174,1719 C170.214548,1719 167.130901,1722.00478 167.004059,1725.75935 L167,1726 L167,1728 C167,1731.78545 170.004783,1734.8691 173.75935,1734.99594 L174,1735 L176,1735 C176.552285,1735 177,1735.44772 177,1736 C177,1736.51284 176.61396,1736.93551 176.116621,1736.99327 L176,1737 L174,1737 C169.118197,1737 165.144209,1733.11319 165.003837,1728.26536 L165,1728 L165,1726 C165,1721.1182 168.886814,1717.14421 173.734638,1717.00384 L174,1717 L176,1717 Z M185,1726 C185.552285,1726 186,1726.44772 186,1727 C186,1727.55228 185.552285,1728 185,1728 L175,1728 C174.447715,1728 174,1727.55228 174,1727 C174,1726.44772 174.447715,1726 175,1726 L185,1726 Z" id="lianjie" transform="translate(180.000000, 1727.000000) rotate(-45.000000) translate(-180.000000, -1727.000000) "></path>
        </g>
    </g>
</svg>