<?xml version="1.0" encoding="UTF-8"?>
<svg width="30px" height="30px" viewBox="0 0 30 30" version="1.1" xmlns="http://www.w3.org/2000/svg" xmlns:xlink="http://www.w3.org/1999/xlink">
    <!-- Generator: Sketch 60 (88103) - https://sketch.com -->
    <title>xuanze2</title>
    <desc>Created with Sketch.</desc>
    <g id="livestart1.5" stroke="none" stroke-width="1" fill="none" fill-rule="evenodd">
        <g id="我要出票-弹窗2" transform="translate(-559.000000, -594.000000)">
            <g id="xuanze2" transform="translate(559.000000, 594.000000)">
                <rect id="矩形" fill="#FCCA16" transform="translate(15.000000, 15.000000) scale(-1, 1) translate(-15.000000, -15.000000) " x="0" y="0" width="30" height="30" rx="15"></rect>
                <path d="M21.0053944,9.87716448 C21.6255193,9.32785895 22.57353,9.38526942 23.1228355,10.0053944 C23.6378095,10.5867615 23.6195369,11.4563095 23.104274,12.0153458 L22.9946056,12.1228355 L13.9632029,20.1228355 C13.4333302,20.5921958 12.654277,20.6234864 12.0911802,20.2167076 L11.9739916,20.1228355 L7.00539435,15.7216612 C6.38526942,15.1723557 6.32785895,14.224345 6.87716448,13.60422 C7.39213841,13.0228529 8.25753682,12.936059 8.8746672,13.3800946 L8.99460565,13.4759901 L12.968,16.996 L21.0053944,9.87716448 Z" id="路径-3" fill="#FFFFFF" fill-rule="nonzero"></path>
            </g>
        </g>
    </g>
</svg>